ply
format ascii 1.0
element vertex 12
property float x
property float y
property float z
element face 16
property list uchar int vertex_index 
property uchar red
property uchar green
property uchar blue
end_header
-1 0 0
-1 0 3
3 0 0
3 0 3
-1 17 0
-1 17 3
3 20 0
3 20 3
-17 17 0
-17 17 3
-17 20 0
-17 20 3
3 0 1 4 50 50 50
3 1 4 5 50 50 50
3 4 5 8 100 100 100
3 5 8 9 100 100 100
3 2 3 6 50 50 50
3 3 6 7 50 50 50
3 6 7 10 100 100 100
3 7 10 11 100 100 100
3 0 2 4 150 150 150
3 2 4 6 150 150 150
3 4 6 10 150 150 150
3 4 8 10 150 150 150
3 1 3 5 150 150 150
3 3 5 7 150 150 150
3 5 7 11 150 150 150
3 5 9 11 150 150 150
