ply
format ascii 1.0
comment author: Greg Turk
comment object: another cube
element vertex 8
property float x
property float y
property float z
element face 12
property list uchar int vertex_index 
property uchar red
property uchar green
property uchar blue
end_header
0 0 0
0 0 3
3 0 0
3 0 3
0 50 0
0 50 3
3 50 0
3 50 3
3 0 1 2 0 0 0
3 1 2 3 0 0 0
3 0 1 4 255 0 0
3 1 4 5 255 0 0
3 0 2 4 0 255 0
3 2 4 6 0 255 0
3 1 3 5 0 0 255
3 3 5 7 0 0 255
3 2 3 6 255 255 0
3 3 6 7 255 255 0
3 4 5 6 0 255 255
3 5 6 7 0 255 255
